{
    "asset" : {
        "generator" : "Khronos glTF Blender I/O v1.4.40",
        "version" : "2.0"
    },
    "scene" : 0,
    "scenes" : [
        {
            "name" : "Scene",
            "nodes" : [
                0
            ]
        }
    ],
    "nodes" : [
        {
            "mesh" : 0,
            "name" : "Car",
            "scale" : [
                2.297517776489258,
                2.297517776489258,
                7.77606725692749
            ],
            "translation" : [
                -33.49081802368164,
                12.93355941772461,
                3.902656078338623
            ]
        }
    ],
    "materials" : [
        {
            "doubleSided" : true,
            "name" : "window",
            "pbrMetallicRoughness" : {
                "baseColorTexture" : {
                    "index" : 0,
                    "texCoord" : 0
                },
                "metallicFactor" : 0,
                "roughnessFactor" : 0.5
            }
        },
        {
            "doubleSided" : true,
            "name" : "metal",
            "pbrMetallicRoughness" : {
                "baseColorTexture" : {
                    "index" : 1,
                    "texCoord" : 0
                },
                "roughnessFactor" : 0.5
            }
        },
        {
            "doubleSided" : true,
            "name" : "tire",
            "pbrMetallicRoughness" : {
                "baseColorTexture" : {
                    "index" : 2,
                    "texCoord" : 0
                },
                "metallicFactor" : 0,
                "roughnessFactor" : 0.5
            }
        },
        {
            "doubleSided" : true,
            "name" : "headlights",
            "pbrMetallicRoughness" : {
                "baseColorTexture" : {
                    "index" : 3,
                    "texCoord" : 0
                },
                "metallicFactor" : 0,
                "roughnessFactor" : 0.5
            }
        },
        {
            "doubleSided" : true,
            "name" : "taillights",
            "pbrMetallicRoughness" : {
                "baseColorTexture" : {
                    "index" : 4,
                    "texCoord" : 0
                },
                "metallicFactor" : 0.7247191071510315,
                "roughnessFactor" : 0.5
            }
        },
        {
            "doubleSided" : true,
            "name" : "redMetal",
            "pbrMetallicRoughness" : {
                "baseColorTexture" : {
                    "index" : 5,
                    "texCoord" : 0
                },
                "metallicFactor" : 0,
                "roughnessFactor" : 0.5
            }
        }
    ],
    "meshes" : [
        {
            "name" : "Cube",
            "primitives" : [
                {
                    "attributes" : {
                        "POSITION" : 0,
                        "NORMAL" : 1,
                        "TEXCOORD_0" : 2
                    },
                    "indices" : 3,
                    "material" : 0
                },
                {
                    "attributes" : {
                        "POSITION" : 4,
                        "NORMAL" : 5,
                        "TEXCOORD_0" : 6
                    },
                    "indices" : 7,
                    "material" : 1
                },
                {
                    "attributes" : {
                        "POSITION" : 8,
                        "NORMAL" : 9,
                        "TEXCOORD_0" : 10
                    },
                    "indices" : 11,
                    "material" : 2
                },
                {
                    "attributes" : {
                        "POSITION" : 12,
                        "NORMAL" : 13,
                        "TEXCOORD_0" : 14
                    },
                    "indices" : 15,
                    "material" : 3
                },
                {
                    "attributes" : {
                        "POSITION" : 16,
                        "NORMAL" : 17,
                        "TEXCOORD_0" : 18
                    },
                    "indices" : 19,
                    "material" : 4
                },
                {
                    "attributes" : {
                        "POSITION" : 20,
                        "NORMAL" : 21,
                        "TEXCOORD_0" : 22
                    },
                    "indices" : 23,
                    "material" : 5
                }
            ]
        }
    ],
    "textures" : [
        {
            "sampler" : 0,
            "source" : 0
        },
        {
            "sampler" : 0,
            "source" : 1
        },
        {
            "sampler" : 0,
            "source" : 2
        },
        {
            "sampler" : 0,
            "source" : 3
        },
        {
            "sampler" : 0,
            "source" : 4
        },
        {
            "sampler" : 0,
            "source" : 5
        }
    ],
    "images" : [
        {
            "mimeType" : "image/png",
            "name" : "Untitled",
            "uri" : "Untitled.png"
        },
        {
            "mimeType" : "image/jpeg",
            "name" : "metal",
            "uri" : "metal.jpg"
        },
        {
            "mimeType" : "image/jpeg",
            "name" : "tire0",
            "uri" : "tire0.jpg"
        },
        {
            "mimeType" : "image/png",
            "name" : "Untitled",
            "uri" : "Untitled-1.png"
        },
        {
            "mimeType" : "image/png",
            "name" : "Untitled",
            "uri" : "Untitled-2.png"
        },
        {
            "mimeType" : "image/jpeg",
            "name" : "Metal",
            "uri" : "Metal.jpg"
        }
    ],
    "accessors" : [
        {
            "bufferView" : 0,
            "componentType" : 5126,
            "count" : 32,
            "max" : [
                1.635671854019165,
                2.336650848388672,
                0.3078729510307312
            ],
            "min" : [
                -1.6568968296051025,
                1.4283908605575562,
                -0.5499914884567261
            ],
            "type" : "VEC3"
        },
        {
            "bufferView" : 1,
            "componentType" : 5126,
            "count" : 32,
            "type" : "VEC3"
        },
        {
            "bufferView" : 2,
            "componentType" : 5126,
            "count" : 32,
            "type" : "VEC2"
        },
        {
            "bufferView" : 3,
            "componentType" : 5123,
            "count" : 48,
            "type" : "SCALAR"
        },
        {
            "bufferView" : 4,
            "componentType" : 5126,
            "count" : 6408,
            "max" : [
                1.9867570400238037,
                1.3611609935760498,
                0.6100845336914062
            ],
            "min" : [
                -1.9901268482208252,
                0.02904045581817627,
                -1.0944488048553467
            ],
            "type" : "VEC3"
        },
        {
            "bufferView" : 5,
            "componentType" : 5126,
            "count" : 6408,
            "type" : "VEC3"
        },
        {
            "bufferView" : 6,
            "componentType" : 5126,
            "count" : 6408,
            "type" : "VEC2"
        },
        {
            "bufferView" : 7,
            "componentType" : 5123,
            "count" : 12642,
            "type" : "SCALAR"
        },
        {
            "bufferView" : 8,
            "componentType" : 5126,
            "count" : 969,
            "max" : [
                1.9867570400238037,
                1.1044867038726807,
                0.5631635189056396
            ],
            "min" : [
                -1.9901268482208252,
                -0.08226847648620605,
                -0.83967524766922
            ],
            "type" : "VEC3"
        },
        {
            "bufferView" : 9,
            "componentType" : 5126,
            "count" : 969,
            "type" : "VEC3"
        },
        {
            "bufferView" : 10,
            "componentType" : 5126,
            "count" : 969,
            "type" : "VEC2"
        },
        {
            "bufferView" : 11,
            "componentType" : 5123,
            "count" : 1482,
            "type" : "SCALAR"
        },
        {
            "bufferView" : 12,
            "componentType" : 5126,
            "count" : 72,
            "max" : [
                1.5743803977966309,
                1.2782056331634521,
                -1.052027702331543
            ],
            "min" : [
                -1.5475878715515137,
                0.7991769909858704,
                -1.0806801319122314
            ],
            "type" : "VEC3"
        },
        {
            "bufferView" : 13,
            "componentType" : 5126,
            "count" : 72,
            "type" : "VEC3"
        },
        {
            "bufferView" : 14,
            "componentType" : 5126,
            "count" : 72,
            "type" : "VEC2"
        },
        {
            "bufferView" : 15,
            "componentType" : 5123,
            "count" : 192,
            "type" : "SCALAR"
        },
        {
            "bufferView" : 16,
            "componentType" : 5126,
            "count" : 36,
            "max" : [
                1.3558330535888672,
                1.2995922565460205,
                0.5676174163818359
            ],
            "min" : [
                -1.3641314506530762,
                0.8621787428855896,
                0.5644609928131104
            ],
            "type" : "VEC3"
        },
        {
            "bufferView" : 17,
            "componentType" : 5126,
            "count" : 36,
            "type" : "VEC3"
        },
        {
            "bufferView" : 18,
            "componentType" : 5126,
            "count" : 36,
            "type" : "VEC2"
        },
        {
            "bufferView" : 19,
            "componentType" : 5123,
            "count" : 96,
            "type" : "SCALAR"
        },
        {
            "bufferView" : 20,
            "componentType" : 5126,
            "count" : 786,
            "max" : [
                1.914560317993164,
                2.411700963973999,
                0.6287760734558105
            ],
            "min" : [
                -1.796994686126709,
                0.17361611127853394,
                -1.138742208480835
            ],
            "type" : "VEC3"
        },
        {
            "bufferView" : 21,
            "componentType" : 5126,
            "count" : 786,
            "type" : "VEC3"
        },
        {
            "bufferView" : 22,
            "componentType" : 5126,
            "count" : 786,
            "type" : "VEC2"
        },
        {
            "bufferView" : 23,
            "componentType" : 5123,
            "count" : 1158,
            "type" : "SCALAR"
        }
    ],
    "bufferViews" : [
        {
            "buffer" : 0,
            "byteLength" : 384,
            "byteOffset" : 0
        },
        {
            "buffer" : 0,
            "byteLength" : 384,
            "byteOffset" : 384
        },
        {
            "buffer" : 0,
            "byteLength" : 256,
            "byteOffset" : 768
        },
        {
            "buffer" : 0,
            "byteLength" : 96,
            "byteOffset" : 1024
        },
        {
            "buffer" : 0,
            "byteLength" : 76896,
            "byteOffset" : 1120
        },
        {
            "buffer" : 0,
            "byteLength" : 76896,
            "byteOffset" : 78016
        },
        {
            "buffer" : 0,
            "byteLength" : 51264,
            "byteOffset" : 154912
        },
        {
            "buffer" : 0,
            "byteLength" : 25284,
            "byteOffset" : 206176
        },
        {
            "buffer" : 0,
            "byteLength" : 11628,
            "byteOffset" : 231460
        },
        {
            "buffer" : 0,
            "byteLength" : 11628,
            "byteOffset" : 243088
        },
        {
            "buffer" : 0,
            "byteLength" : 7752,
            "byteOffset" : 254716
        },
        {
            "buffer" : 0,
            "byteLength" : 2964,
            "byteOffset" : 262468
        },
        {
            "buffer" : 0,
            "byteLength" : 864,
            "byteOffset" : 265432
        },
        {
            "buffer" : 0,
            "byteLength" : 864,
            "byteOffset" : 266296
        },
        {
            "buffer" : 0,
            "byteLength" : 576,
            "byteOffset" : 267160
        },
        {
            "buffer" : 0,
            "byteLength" : 384,
            "byteOffset" : 267736
        },
        {
            "buffer" : 0,
            "byteLength" : 432,
            "byteOffset" : 268120
        },
        {
            "buffer" : 0,
            "byteLength" : 432,
            "byteOffset" : 268552
        },
        {
            "buffer" : 0,
            "byteLength" : 288,
            "byteOffset" : 268984
        },
        {
            "buffer" : 0,
            "byteLength" : 192,
            "byteOffset" : 269272
        },
        {
            "buffer" : 0,
            "byteLength" : 9432,
            "byteOffset" : 269464
        },
        {
            "buffer" : 0,
            "byteLength" : 9432,
            "byteOffset" : 278896
        },
        {
            "buffer" : 0,
            "byteLength" : 6288,
            "byteOffset" : 288328
        },
        {
            "buffer" : 0,
            "byteLength" : 2316,
            "byteOffset" : 294616
        }
    ],
    "samplers" : [
        {
            "magFilter" : 9729,
            "minFilter" : 9986
        }
    ],
    "buffers" : [
        {
            "byteLength" : 296932,
            "uri" : "car2backup.bin"
        }
    ]
}
