{
    "asset" : {
        "generator" : "Khronos glTF Blender I/O v1.7.33",
        "version" : "2.0"
    },
    "scene" : 0,
    "scenes" : [
        {
            "name" : "Scene",
            "nodes" : [
                0,
                2,
                3,
                4,
                5,
                6,
                7,
                8
            ]
        }
    ],
    "nodes" : [
        {
            "mesh" : 0,
            "name" : "carbody",
            "rotation" : [
                0,
                0.9999817609786987,
                0,
                0.006048360839486122
            ],
            "translation" : [
                -0.14715194702148438,
                0,
                1.7235519886016846
            ]
        },
        {
            "camera" : 0,
            "name" : "Camera_Orientation",
            "rotation" : [
                -0.7071067690849304,
                0,
                0,
                0.7071067690849304
            ]
        },
        {
            "children" : [
                1
            ],
            "name" : "Camera",
            "rotation" : [
                -0.4876405596733093,
                0.3210870325565338,
                -0.19892454147338867,
                -0.7871078848838806
            ],
            "translation" : [
                -6.88249397277832,
                4.958309173583984,
                6.004032135009766
            ]
        },
        {
            "mesh" : 1,
            "name" : "Plane",
            "rotation" : [
                0,
                0.7071068286895752,
                0,
                -0.7071068286895752
            ],
            "scale" : [
                30,
                6,
                6
            ],
            "translation" : [
                0.1802990436553955,
                0,
                -21.18012237548828
            ]
        },
        {
            "mesh" : 2,
            "name" : "Cube",
            "rotation" : [
                0,
                0.7071068286895752,
                0,
                -0.7071068286895752
            ],
            "scale" : [
                0.3090229034423828,
                1,
                1
            ],
            "translation" : [
                -3.9639275074005127,
                1,
                -15.256919860839844
            ]
        },
        {
            "mesh" : 3,
            "name" : "Cube.001",
            "rotation" : [
                0,
                0.7071068286895752,
                0,
                -0.7071068286895752
            ],
            "scale" : [
                0.3090229034423828,
                1,
                1
            ],
            "translation" : [
                2.9305953979492188,
                1,
                -3.625365734100342
            ]
        },
        {
            "mesh" : 4,
            "name" : "Cube.002",
            "rotation" : [
                0,
                0.7071068286895752,
                0,
                -0.7071068286895752
            ],
            "scale" : [
                0.3090229034423828,
                1,
                1
            ],
            "translation" : [
                -0.4626450538635254,
                1,
                -40.195552825927734
            ]
        },
        {
            "mesh" : 5,
            "name" : "Cube.003",
            "rotation" : [
                0,
                0.7071068286895752,
                0,
                -0.7071068286895752
            ],
            "scale" : [
                30,
                1,
                0.30000001192092896
            ],
            "translation" : [
                6.329213619232178,
                1,
                -21.064605712890625
            ]
        },
        {
            "mesh" : 6,
            "name" : "Cube.004",
            "rotation" : [
                0,
                0.7071068286895752,
                0,
                -0.7071068286895752
            ],
            "scale" : [
                30,
                1,
                0.30000001192092896
            ],
            "translation" : [
                -5.818642616271973,
                1,
                -21.292821884155273
            ]
        }
    ],
    "cameras" : [
        {
            "name" : "Camera",
            "perspective" : {
                "aspectRatio" : 1.7777777777777777,
                "yfov" : 0.39959648408210363,
                "zfar" : 100,
                "znear" : 0.10000000149011612
            },
            "type" : "perspective"
        }
    ],
    "materials" : [
        {
            "doubleSided" : true,
            "name" : "MAIN",
            "pbrMetallicRoughness" : {
                "baseColorTexture" : {
                    "index" : 0
                },
                "metallicFactor" : 0.5,
                "roughnessFactor" : 0.5
            }
        },
        {
            "alphaMode" : "BLEND",
            "doubleSided" : true,
            "name" : "WINDOW",
            "pbrMetallicRoughness" : {
                "baseColorTexture" : {
                    "index" : 1
                },
                "metallicFactor" : 0,
                "roughnessFactor" : 0
            }
        },
        {
            "doubleSided" : true,
            "name" : "Material",
            "pbrMetallicRoughness" : {
                "baseColorTexture" : {
                    "index" : 2
                },
                "metallicFactor" : 0,
                "roughnessFactor" : 0.4000000059604645
            }
        }
    ],
    "meshes" : [
        {
            "name" : "Circle.073",
            "primitives" : [
                {
                    "attributes" : {
                        "POSITION" : 0,
                        "NORMAL" : 1,
                        "TANGENT" : 2,
                        "TEXCOORD_0" : 3
                    },
                    "indices" : 4,
                    "material" : 0
                },
                {
                    "attributes" : {
                        "POSITION" : 5,
                        "NORMAL" : 6,
                        "TANGENT" : 7,
                        "TEXCOORD_0" : 8
                    },
                    "indices" : 9,
                    "material" : 1
                }
            ]
        },
        {
            "name" : "Plane",
            "primitives" : [
                {
                    "attributes" : {
                        "POSITION" : 10,
                        "NORMAL" : 11,
                        "TANGENT" : 12,
                        "TEXCOORD_0" : 13
                    },
                    "indices" : 14,
                    "material" : 2
                }
            ]
        },
        {
            "name" : "Cube.001",
            "primitives" : [
                {
                    "attributes" : {
                        "POSITION" : 15,
                        "NORMAL" : 16,
                        "TANGENT" : 17,
                        "TEXCOORD_0" : 18
                    },
                    "indices" : 19,
                    "material" : 1
                }
            ]
        },
        {
            "name" : "Cube.002",
            "primitives" : [
                {
                    "attributes" : {
                        "POSITION" : 20,
                        "NORMAL" : 21,
                        "TANGENT" : 22,
                        "TEXCOORD_0" : 23
                    },
                    "indices" : 19,
                    "material" : 1
                }
            ]
        },
        {
            "name" : "Cube.003",
            "primitives" : [
                {
                    "attributes" : {
                        "POSITION" : 24,
                        "NORMAL" : 25,
                        "TANGENT" : 26,
                        "TEXCOORD_0" : 27
                    },
                    "indices" : 19,
                    "material" : 1
                }
            ]
        },
        {
            "name" : "Cube.004",
            "primitives" : [
                {
                    "attributes" : {
                        "POSITION" : 28,
                        "NORMAL" : 29,
                        "TANGENT" : 30,
                        "TEXCOORD_0" : 31
                    },
                    "indices" : 19,
                    "material" : 1
                }
            ]
        },
        {
            "name" : "Cube.005",
            "primitives" : [
                {
                    "attributes" : {
                        "POSITION" : 32,
                        "NORMAL" : 33,
                        "TANGENT" : 34,
                        "TEXCOORD_0" : 35
                    },
                    "indices" : 19,
                    "material" : 1
                }
            ]
        }
    ],
    "textures" : [
        {
            "sampler" : 0,
            "source" : 0
        },
        {
            "sampler" : 0,
            "source" : 0
        },
        {
            "sampler" : 0,
            "source" : 1
        }
    ],
    "images" : [
        {
            "mimeType" : "image/png",
            "name" : "Color_Texture_FREE CAR 2021",
            "uri" : "Color_Texture_FREE%20CAR%202021.png"
        },
        {
            "mimeType" : "image/png",
            "name" : "Untitled",
            "uri" : "Untitled.png"
        }
    ],
    "accessors" : [
        {
            "bufferView" : 0,
            "componentType" : 5126,
            "count" : 6380,
            "max" : [
                1.0883210897445679,
                1.7160087823867798,
                1.6670520305633545
            ],
            "min" : [
                -1.0883214473724365,
                0.002118527889251709,
                -1.7920552492141724
            ],
            "type" : "VEC3"
        },
        {
            "bufferView" : 1,
            "componentType" : 5126,
            "count" : 6380,
            "type" : "VEC3"
        },
        {
            "bufferView" : 2,
            "componentType" : 5126,
            "count" : 6380,
            "type" : "VEC4"
        },
        {
            "bufferView" : 3,
            "componentType" : 5126,
            "count" : 6380,
            "type" : "VEC2"
        },
        {
            "bufferView" : 4,
            "componentType" : 5123,
            "count" : 9714,
            "type" : "SCALAR"
        },
        {
            "bufferView" : 5,
            "componentType" : 5126,
            "count" : 36,
            "max" : [
                0.8328425288200378,
                1.669926404953003,
                3.0904293060302734
            ],
            "min" : [
                -0.8328425884246826,
                0.4078369736671448,
                -1.7224246263504028
            ],
            "type" : "VEC3"
        },
        {
            "bufferView" : 6,
            "componentType" : 5126,
            "count" : 36,
            "type" : "VEC3"
        },
        {
            "bufferView" : 7,
            "componentType" : 5126,
            "count" : 36,
            "type" : "VEC4"
        },
        {
            "bufferView" : 8,
            "componentType" : 5126,
            "count" : 36,
            "type" : "VEC2"
        },
        {
            "bufferView" : 9,
            "componentType" : 5123,
            "count" : 42,
            "type" : "SCALAR"
        },
        {
            "bufferView" : 10,
            "componentType" : 5126,
            "count" : 4,
            "max" : [
                1,
                0,
                1
            ],
            "min" : [
                -1,
                0,
                -1
            ],
            "type" : "VEC3"
        },
        {
            "bufferView" : 11,
            "componentType" : 5126,
            "count" : 4,
            "type" : "VEC3"
        },
        {
            "bufferView" : 12,
            "componentType" : 5126,
            "count" : 4,
            "type" : "VEC4"
        },
        {
            "bufferView" : 13,
            "componentType" : 5126,
            "count" : 4,
            "type" : "VEC2"
        },
        {
            "bufferView" : 14,
            "componentType" : 5123,
            "count" : 6,
            "type" : "SCALAR"
        },
        {
            "bufferView" : 15,
            "componentType" : 5126,
            "count" : 24,
            "max" : [
                1,
                1,
                1
            ],
            "min" : [
                -1,
                -1,
                -1
            ],
            "type" : "VEC3"
        },
        {
            "bufferView" : 16,
            "componentType" : 5126,
            "count" : 24,
            "type" : "VEC3"
        },
        {
            "bufferView" : 17,
            "componentType" : 5126,
            "count" : 24,
            "type" : "VEC4"
        },
        {
            "bufferView" : 18,
            "componentType" : 5126,
            "count" : 24,
            "type" : "VEC2"
        },
        {
            "bufferView" : 19,
            "componentType" : 5123,
            "count" : 36,
            "type" : "SCALAR"
        },
        {
            "bufferView" : 20,
            "componentType" : 5126,
            "count" : 24,
            "max" : [
                1,
                1,
                1
            ],
            "min" : [
                -1,
                -1,
                -1
            ],
            "type" : "VEC3"
        },
        {
            "bufferView" : 21,
            "componentType" : 5126,
            "count" : 24,
            "type" : "VEC3"
        },
        {
            "bufferView" : 22,
            "componentType" : 5126,
            "count" : 24,
            "type" : "VEC4"
        },
        {
            "bufferView" : 23,
            "componentType" : 5126,
            "count" : 24,
            "type" : "VEC2"
        },
        {
            "bufferView" : 24,
            "componentType" : 5126,
            "count" : 24,
            "max" : [
                1,
                1,
                1
            ],
            "min" : [
                -1,
                -1,
                -1
            ],
            "type" : "VEC3"
        },
        {
            "bufferView" : 25,
            "componentType" : 5126,
            "count" : 24,
            "type" : "VEC3"
        },
        {
            "bufferView" : 26,
            "componentType" : 5126,
            "count" : 24,
            "type" : "VEC4"
        },
        {
            "bufferView" : 27,
            "componentType" : 5126,
            "count" : 24,
            "type" : "VEC2"
        },
        {
            "bufferView" : 28,
            "componentType" : 5126,
            "count" : 24,
            "max" : [
                1,
                1,
                1
            ],
            "min" : [
                -1,
                -1,
                -1
            ],
            "type" : "VEC3"
        },
        {
            "bufferView" : 29,
            "componentType" : 5126,
            "count" : 24,
            "type" : "VEC3"
        },
        {
            "bufferView" : 30,
            "componentType" : 5126,
            "count" : 24,
            "type" : "VEC4"
        },
        {
            "bufferView" : 31,
            "componentType" : 5126,
            "count" : 24,
            "type" : "VEC2"
        },
        {
            "bufferView" : 32,
            "componentType" : 5126,
            "count" : 24,
            "max" : [
                1,
                1,
                1
            ],
            "min" : [
                -1,
                -1,
                -1
            ],
            "type" : "VEC3"
        },
        {
            "bufferView" : 33,
            "componentType" : 5126,
            "count" : 24,
            "type" : "VEC3"
        },
        {
            "bufferView" : 34,
            "componentType" : 5126,
            "count" : 24,
            "type" : "VEC4"
        },
        {
            "bufferView" : 35,
            "componentType" : 5126,
            "count" : 24,
            "type" : "VEC2"
        }
    ],
    "bufferViews" : [
        {
            "buffer" : 0,
            "byteLength" : 76560,
            "byteOffset" : 0
        },
        {
            "buffer" : 0,
            "byteLength" : 76560,
            "byteOffset" : 76560
        },
        {
            "buffer" : 0,
            "byteLength" : 102080,
            "byteOffset" : 153120
        },
        {
            "buffer" : 0,
            "byteLength" : 51040,
            "byteOffset" : 255200
        },
        {
            "buffer" : 0,
            "byteLength" : 19428,
            "byteOffset" : 306240
        },
        {
            "buffer" : 0,
            "byteLength" : 432,
            "byteOffset" : 325668
        },
        {
            "buffer" : 0,
            "byteLength" : 432,
            "byteOffset" : 326100
        },
        {
            "buffer" : 0,
            "byteLength" : 576,
            "byteOffset" : 326532
        },
        {
            "buffer" : 0,
            "byteLength" : 288,
            "byteOffset" : 327108
        },
        {
            "buffer" : 0,
            "byteLength" : 84,
            "byteOffset" : 327396
        },
        {
            "buffer" : 0,
            "byteLength" : 48,
            "byteOffset" : 327480
        },
        {
            "buffer" : 0,
            "byteLength" : 48,
            "byteOffset" : 327528
        },
        {
            "buffer" : 0,
            "byteLength" : 64,
            "byteOffset" : 327576
        },
        {
            "buffer" : 0,
            "byteLength" : 32,
            "byteOffset" : 327640
        },
        {
            "buffer" : 0,
            "byteLength" : 12,
            "byteOffset" : 327672
        },
        {
            "buffer" : 0,
            "byteLength" : 288,
            "byteOffset" : 327684
        },
        {
            "buffer" : 0,
            "byteLength" : 288,
            "byteOffset" : 327972
        },
        {
            "buffer" : 0,
            "byteLength" : 384,
            "byteOffset" : 328260
        },
        {
            "buffer" : 0,
            "byteLength" : 192,
            "byteOffset" : 328644
        },
        {
            "buffer" : 0,
            "byteLength" : 72,
            "byteOffset" : 328836
        },
        {
            "buffer" : 0,
            "byteLength" : 288,
            "byteOffset" : 328908
        },
        {
            "buffer" : 0,
            "byteLength" : 288,
            "byteOffset" : 329196
        },
        {
            "buffer" : 0,
            "byteLength" : 384,
            "byteOffset" : 329484
        },
        {
            "buffer" : 0,
            "byteLength" : 192,
            "byteOffset" : 329868
        },
        {
            "buffer" : 0,
            "byteLength" : 288,
            "byteOffset" : 330060
        },
        {
            "buffer" : 0,
            "byteLength" : 288,
            "byteOffset" : 330348
        },
        {
            "buffer" : 0,
            "byteLength" : 384,
            "byteOffset" : 330636
        },
        {
            "buffer" : 0,
            "byteLength" : 192,
            "byteOffset" : 331020
        },
        {
            "buffer" : 0,
            "byteLength" : 288,
            "byteOffset" : 331212
        },
        {
            "buffer" : 0,
            "byteLength" : 288,
            "byteOffset" : 331500
        },
        {
            "buffer" : 0,
            "byteLength" : 384,
            "byteOffset" : 331788
        },
        {
            "buffer" : 0,
            "byteLength" : 192,
            "byteOffset" : 332172
        },
        {
            "buffer" : 0,
            "byteLength" : 288,
            "byteOffset" : 332364
        },
        {
            "buffer" : 0,
            "byteLength" : 288,
            "byteOffset" : 332652
        },
        {
            "buffer" : 0,
            "byteLength" : 384,
            "byteOffset" : 332940
        },
        {
            "buffer" : 0,
            "byteLength" : 192,
            "byteOffset" : 333324
        }
    ],
    "samplers" : [
        {
            "magFilter" : 9729,
            "minFilter" : 9987
        }
    ],
    "buffers" : [
        {
            "byteLength" : 333516,
            "uri" : "carRoad2.bin"
        }
    ]
}
